<?xml version="1.0" encoding="utf-8"?><svg xmlns="http://www.w3.org/2000/svg" xmlns:xlink="http://www.w3.org/1999/xlink" width="1536" height="714" preserveAspectRatio="xMidYMid" viewBox="0 0 1536 714" style="z-index:1;margin-right:-1.6px;display:block;background-repeat-y:initial;background-repeat-x:initial;background-color:rgb(255, 255, 255);animation-play-state:paused" ><g transform="translate(768,357) scale(1,1) translate(-768,-357)" style="transform:matrix(1, 0, 0, 1, 0, 0);animation-play-state:paused" ><linearGradient id="lg-0.842312645252836" x1="0" x2="1" y1="0" y2="0" style="animation-play-state:paused" ><stop stop-color="#ff00ff" offset="0" style="animation-play-state:paused" ></stop>

  
<stop stop-color="#00ffff" offset="1" style="animation-play-state:paused" ></stop></linearGradient>
<path d="M 0 0 L 0 700.618 Q 153.6 550.033 307.2 532.583 T 614.4 476.896 T 921.6 509.854 T 1228.8 351.769 T 1536 291.72 L 1536 0 Z" fill="url(#lg-0.842312645252836)" opacity="0.4" style="opacity:0.4;animation-play-state:paused" ></path>
<path d="M 0 0 L 0 614.884 Q 153.6 593.514 307.2 572.049 T 614.4 544.053 T 921.6 494.33 T 1228.8 397.513 T 1536 303.665 L 1536 0 Z" fill="url(#lg-0.842312645252836)" opacity="0.4" style="opacity:0.4;animation-play-state:paused" ></path>
<path d="M 0 0 L 0 685.483 Q 153.6 619.949 307.2 593.893 T 614.4 499.699 T 921.6 433.137 T 1228.8 341.846 T 1536 277.385 L 1536 0 Z" fill="url(#lg-0.842312645252836)" opacity="0.4" style="opacity:0.4;animation-play-state:paused" ></path>
<path d="M 0 0 L 0 630.836 Q 153.6 615.465 307.2 597.205 T 614.4 499.402 T 921.6 416.847 T 1228.8 351.705 T 1536 264.5 L 1536 0 Z" fill="url(#lg-0.842312645252836)" opacity="0.4" style="opacity:0.4;animation-play-state:paused" ></path>
<path d="M 0 0 L 0 643.263 Q 153.6 576.688 307.2 556.424 T 614.4 543.366 T 921.6 436.094 T 1228.8 375.107 T 1536 345.971 L 1536 0 Z" fill="url(#lg-0.842312645252836)" opacity="0.4" style="opacity:0.4;animation-play-state:paused" ></path></g></svg>